<svg width="573" height="848" viewBox="0 0 573 848" fill="none" xmlns="http://www.w3.org/2000/svg">
<path d="M450.847 845.117C424.908 837.663 398.804 822.16 375.641 800.452C365.666 791.104 364.8 790.92 352.209 795.468C234.717 837.904 128.743 771.011 121.166 649.629C120.24 634.791 120.24 634.791 109.431 629.2C-3.77897 570.647 -34.1235 449.999 41.8731 360.592C53.7049 346.673 53.4192 348.011 48.7079 328.583C25.8139 234.174 46.301 158.309 105.295 119.035C127.978 103.935 149.677 97.9154 191.759 95.0505C203.48 94.2524 203.48 94.2525 207.578 85.8458C229.909 40.0302 275.091 -7.11583 308.713 -19.6851C312.082 -20.9448 317.241 -23.1132 320.178 -24.5038C363.331 -44.94 423.709 -30.0957 469.431 12.1914C482.547 24.3224 482.547 24.3224 499.461 19.3226C622.574 -17.0703 713.401 38.5724 725.978 158.092C728.439 181.471 727.379 179.78 746.114 190.232C853.978 250.408 881.762 371.267 806.837 454.379C793.188 469.52 793.957 466.874 798.473 483.153C835.672 617.25 779.09 711.708 655.737 721.437C644.281 722.341 644.281 722.341 636.885 736.477C616.671 775.109 583.555 811.67 555.175 826.685C551.557 828.599 547.76 831.032 546.738 832.09C545.716 833.149 544.211 834.015 543.394 834.015C542.577 834.015 539.467 835.227 536.482 836.709C515.686 847.033 472.329 851.29 450.847 845.117ZM517.446 809.68C551.36 801.845 595.465 765.138 617.157 726.695C623.79 714.939 623.963 715.803 614.59 713.893C596.832 710.275 569.99 719.147 541.052 738.2C511.983 757.34 509.948 757.204 485.677 734.493C469.33 719.196 465.182 717.049 449.641 715.84C440.398 715.121 436.306 714.113 431.892 711.47C422.782 706.015 412.514 702.897 388.913 698.417C357.163 692.39 348.13 687.038 337.818 668.144C314.862 626.081 314.761 542.404 337.608 493.211C340.133 487.773 342.2 482.865 342.2 482.304C342.2 481.743 343.401 479.703 344.869 477.77C346.337 475.837 347.552 473.251 347.568 472.023C347.584 470.795 348.816 468.236 350.304 466.335C351.792 464.434 354.571 460.391 356.479 457.35C358.387 454.309 361.071 450.577 362.444 449.057C371.293 439.256 378.319 429.963 377.889 428.628C374.21 417.198 300.16 430.403 280.355 446.021C278.033 447.852 274.699 449.82 272.947 450.394C271.194 450.968 263.518 456.811 255.888 463.378C248.258 469.946 240.256 476.564 238.105 478.084C235.954 479.605 234.171 481.383 234.143 482.037C234.114 482.691 231.174 486.531 227.609 490.572C220.723 498.375 210.439 518.161 209.227 525.941C207.92 534.325 221.218 561.11 229.465 566.707C231.166 567.86 233.178 570.651 233.938 572.907C235.527 577.628 242.037 581.062 249.397 581.062C254.111 581.062 254.111 581.062 254.111 596.445C254.111 611.827 254.111 611.827 262.505 621.041C276.027 635.887 277.846 643.512 273.49 667.089C270.246 684.644 270.784 685.121 301.282 691.753C308.738 693.374 316.169 695.568 317.795 696.628C319.421 697.687 321.567 698.554 322.563 698.554C325.539 698.554 348.867 710.778 358.347 717.305C373.444 727.699 382.531 739.941 386.847 755.696C390.392 768.639 405.03 780.851 436.437 797.067C464.25 811.428 491.509 815.672 517.446 809.68ZM334.192 776.708C353.029 772.75 355.248 769.998 347.155 760.632C333.502 744.834 317.294 736.755 276.276 725.304C247.505 717.272 245.256 714.314 243.889 682.715C242.936 660.697 242.114 657.909 233.466 647.385C229.416 642.458 225.14 635.627 223.963 632.206C218.618 616.668 214.597 607.871 209.853 601.331C207.034 597.446 204.729 593.474 204.729 592.503C204.729 591.532 204.117 590.738 203.369 590.738C195.741 590.738 182.666 557.252 183.731 540.443C185.336 515.115 216.755 460.871 236.602 449.164C237.79 448.463 242.066 444.948 246.103 441.353C278.013 412.938 323.85 393.037 362.554 390.795C371.179 390.295 378.236 389.466 378.236 388.953C378.236 379.806 346.429 351.542 322.847 339.734C279.387 317.972 209.426 316.091 190.199 336.167C178.253 348.64 171.747 390.259 180.433 398.639C185.477 403.506 182.791 412.984 174.708 418.845C164.384 426.331 164.627 425.837 164.101 440.393C163.436 458.808 151.699 480.158 142.241 480.158C139.268 480.158 129.987 490.148 129.987 493.348C129.987 496.443 134.807 505.843 141.545 515.887C166.3 552.789 174.608 604.484 159.35 626.676C146.837 644.876 167.93 712.413 195.989 743.986C221.852 773.089 282.765 787.511 334.192 776.708ZM525.05 702.7C534.226 697.156 543.313 691.503 545.244 690.139C549.696 686.992 567.329 679.959 577.752 677.173C604.981 669.893 619.11 671.516 640.346 684.366C656.958 694.416 723.902 668.107 752.696 640.211C778.803 614.919 791.84 546.177 780.084 495.799C772.078 461.49 746.56 497.355 730.643 565.287C724.61 591.034 722.219 592.884 693.818 593.762C671.264 594.459 665.887 596.105 654.722 605.731C647.205 612.212 642.207 614.947 630.062 619.225C624.97 621.018 619.973 623.2 618.957 624.073C617.942 624.946 615.362 626.667 613.226 627.896C611.09 629.126 604.34 634.124 598.227 639.004C530.952 692.699 414.844 589.584 407.817 469.902C407.302 461.122 406.329 454.602 405.491 454.315C400.832 452.72 362.22 497.996 362.22 505.054C362.22 505.946 361.025 508.248 359.565 510.171C340.191 535.679 336.752 630.711 354.537 649.129C366.685 661.71 406.632 669.104 415.852 660.477C422.904 653.879 432.557 658.565 440.597 672.488C442.571 675.907 443.527 676.2 455.516 677.065C477.54 678.654 481.615 680.996 493.734 699.032C500.696 709.393 505.441 714.173 507.699 713.099C508.066 712.924 515.874 708.245 525.05 702.7ZM560.339 623.343C575.72 614.008 590.449 599.395 590.449 593.472C590.449 583.647 593.625 581.895 609.395 583.02C622.645 583.965 622.645 583.965 630.414 575.614C644.191 560.804 653.887 558.038 674.284 563.103C680.387 564.618 686.276 565.857 687.372 565.857C690.28 565.857 693.898 556.323 699.785 533.149C705.861 509.231 709.424 498.879 713.964 491.949C715.768 489.197 717.243 486.406 717.243 485.745C717.243 477.077 742.828 452.766 757.323 447.66C770.305 443.088 772.145 441.679 780.398 430.001C834.911 352.87 825.146 284.098 750.632 220.366C728.276 201.245 719.128 200.735 719.417 218.626C719.767 240.348 726.501 258.297 746.749 291.48C761.99 316.455 761.434 320.087 738.493 345.415C728.822 356.094 725.782 362.431 722.688 378.355C721.307 385.468 718.563 395.266 716.592 400.129C710.459 415.259 708.262 423.609 705.904 440.763C697.358 502.913 644.772 526.913 551.743 511.119C531.984 507.764 490.779 491.954 480.374 483.735C477.883 481.767 475.446 480.158 474.959 480.158C474.471 480.158 468.688 475.337 462.107 469.445C441.794 451.258 442.503 451.241 441.418 469.952C436.623 552.581 513.516 651.761 560.339 623.343ZM126.211 609.184C135.48 600.497 125.916 564.815 104.568 528.435C86.6071 497.826 86.7554 495.057 107.582 472.158C120.291 458.185 123.992 450.59 125.915 434.543C126.996 425.519 128.555 420.229 132.635 411.736C137.068 402.508 138.507 397.247 141.328 379.944C148.316 337.08 154.644 326.842 182.274 313.698C245.03 283.844 340.415 301.515 394.663 353.044C405.911 363.728 406.761 363.204 407.398 345.189C409.198 294.308 377.755 226.271 340.35 200.108C310.272 179.071 301.292 179.865 269.374 206.387C258.702 215.255 257.531 216.681 257.904 220.363C258.553 226.769 253.536 234.161 249.028 233.44C229.986 230.396 226.526 230.992 220.487 238.36C209.606 251.636 196.135 256.301 178.702 252.83C156.356 248.38 157.63 247.098 148.531 283.186C136.587 330.556 115.239 361.038 88.5823 368.784C75.6435 372.544 65.9258 384.35 49.8908 415.793C19.8531 474.692 29.1502 524.75 79.9366 577.566C102.754 601.295 121.189 613.891 126.211 609.184ZM640.499 489.363C660.311 482.832 667.458 471.107 671.399 438.672C673.57 420.807 673.57 420.807 669.38 416.753C662.687 410.278 668.611 397.747 681.675 390.751C685.466 388.721 685.544 388.464 684.75 380.594C682.508 358.384 688.794 346.128 708.54 334.209C720.978 326.702 720.688 322.322 706.109 297.467C681.606 255.695 674.686 217.451 687.058 192.19C703.335 158.957 674.283 83.4946 634.719 56.2426C602.97 34.3735 501.803 26.634 496.04 45.6335C495.273 48.1629 508.338 63.4415 513.393 65.9255C515.932 67.1733 518.734 69.0984 519.619 70.2036C522.467 73.757 540.424 80.5836 564.073 87.1028C576.745 90.596 589.317 94.0653 592.011 94.8124C600.118 97.0603 602.721 105.247 603.962 132.386C604.514 144.476 605.514 154.739 606.183 155.193C606.852 155.647 608.187 157.574 609.15 159.474C610.112 161.375 613.14 165.729 615.879 169.15C620.857 175.369 626.485 185.657 626.485 188.537C626.485 193.295 637.13 212.48 648.322 227.891C655.397 237.634 661.186 246.926 661.186 248.538C661.186 250.151 662.223 253.002 663.489 254.874C668.112 261.711 665.595 283.752 658.282 300.464C650.889 317.358 648.468 321.873 640.861 332.948C627.989 351.69 592.036 385.462 578.862 391.188C576.526 392.203 574.268 393.617 573.842 394.329C567.659 404.691 515.244 422.526 485.421 424.416C468.885 425.463 468.627 425.74 475.106 435.483C502.217 476.251 591.775 505.426 640.499 489.363ZM531.723 384.969C546.822 380.113 569.393 369.654 573.75 365.495C575.227 364.085 578.537 362.024 581.106 360.917C593.096 355.747 626.025 320.513 633.437 304.923C641.291 288.405 640.047 277.991 628.163 260.769C610.752 235.538 611.137 235.946 603.794 234.937C594.072 233.602 592.49 230.532 593.683 215.313C594.608 203.505 594.608 203.505 585.495 193.569C575.85 183.054 573.503 177.909 572.148 164.313C571.756 160.38 572.048 155.972 572.797 154.517C581.178 138.228 576.352 130.557 554.158 124.894C499.448 110.934 461.291 83.2101 460.969 57.1871C460.736 38.3225 391.636 3.03141 354.879 3.00425C312.405 2.97285 261.328 38.2523 230.946 88.606C216.978 111.757 261.09 105.955 303.862 79.0165C337.31 57.9501 338.925 57.9694 362.086 79.713C376.138 92.9054 377.128 93.79 379.307 95.0987C380.263 95.673 387.778 97.2803 396.008 98.6706C407.162 100.555 413.344 102.438 420.296 106.066C425.646 108.86 434.172 111.828 440.298 113.031C446.171 114.184 457.883 116.442 466.324 118.048C492.602 123.048 502.344 130.504 513.673 154.291C543.497 216.909 527.904 317.005 479.434 374.078C465.599 390.368 465.51 390.282 495.687 389.816C516.305 389.498 518.603 389.189 531.723 384.969ZM449.971 356.645C452.726 354.094 456.331 351.273 457.983 350.376C459.634 349.48 460.986 348.102 460.986 347.314C460.986 346.527 463.788 342.591 467.213 338.568C512.657 285.186 521.815 167.967 481.41 156.84C458.661 150.575 436.534 149.502 432.411 154.464C427.303 160.611 419.881 157.726 410.935 146.113C405.597 139.183 405.597 139.183 392.25 138.493C373.768 137.538 364.042 132.207 356.134 118.698C344.756 99.2592 342.27 99.269 313.125 118.866C307.043 122.954 301.698 126.3 301.246 126.3C300.794 126.3 297.361 127.852 293.617 129.748C270.281 141.57 232.518 144.684 216.741 136.086C188.538 120.718 113.594 147.106 91.7596 180.092C89.9562 182.817 86.1168 188.467 83.2276 192.648C67.0961 215.993 59.5338 277.478 67.9266 317.051C71.9382 335.966 74.9171 336.885 87.3747 323.047C101.924 306.885 106.121 297.755 114.056 265.001C124.153 223.325 124.195 223.281 155.63 221.491C178.297 220.2 181.358 219.186 194.823 208.506C201.083 203.541 207.568 199.857 214.047 197.587C219.424 195.703 227.275 191.955 231.494 189.258C235.713 186.561 239.72 184.355 240.399 184.355C241.078 184.355 243.083 182.757 244.855 180.804C250.856 174.188 269.308 162.43 277.415 160.056C295.428 154.781 330.352 164.971 348.518 180.801C350.76 182.756 353.184 184.355 353.904 184.355C358.325 184.355 404.929 236.895 404.929 241.879C404.929 242.768 405.712 243.807 406.668 244.187C409.722 245.401 424.354 275.379 430.763 293.553C436.264 309.155 437.91 317.709 439.673 339.851C441.594 363.977 441.76 364.249 449.971 356.645Z" fill="#D0E2E1"/>
</svg>
