<svg version="1.2" xmlns="http://www.w3.org/2000/svg" viewBox="0 0 1560 1644" width="1560" height="1644">
	<title>path276 (1)-svg</title>
	<style>
		.s0 { fill: #f0f3f5 } 
	</style>
	<path id="Layer" fill-rule="evenodd" class="s0" d="m826 1615.8c-46.8-13.4-93.8-41.4-135.6-80.5-18-16.9-19.6-17.2-42.3-9-211.8 76.5-402.9-44.1-416.6-263.1-1.7-26.7-1.7-26.7-21.2-36.8-204.1-105.6-258.8-323.2-121.8-484.5 21.3-25.1 20.8-22.7 12.3-57.7-41.2-170.3-4.3-307.1 102.1-377.9 40.9-27.3 80-38.1 155.9-43.3 21.1-1.4 21.1-1.4 28.5-16.6 40.3-82.6 121.8-167.7 182.4-190.3 6.1-2.3 15.4-6.2 20.7-8.7 77.8-36.9 186.7-10.1 269.1 66.2 23.7 21.8 23.7 21.8 54.2 12.8 222-65.6 385.8 34.7 408.5 250.3 4.4 42.2 2.5 39.1 36.3 58 194.5 108.5 244.6 326.5 109.5 476.4-24.7 27.3-23.3 22.5-15.1 51.9 67.1 241.8-35 412.2-257.4 429.8-20.7 1.6-20.7 1.6-34 27.1-36.5 69.7-96.2 135.6-147.4 162.7-6.5 3.4-13.3 7.8-15.2 9.7-1.8 1.9-4.5 3.5-6 3.5-1.5 0-7.1 2.2-12.5 4.9-37.5 18.6-115.7 26.3-154.4 15.1zm120.1-63.9c61.2-14.1 140.7-80.3 179.8-149.7 12-21.2 12.3-19.6-4.6-23-32-6.6-80.4 9.4-132.6 43.8-52.4 34.5-56.1 34.3-99.9-6.7-29.5-27.6-36.9-31.5-65-33.6-16.6-1.3-24-3.1-32-7.9-16.4-9.9-34.9-15.5-77.5-23.6-57.2-10.8-73.5-20.5-92.1-54.6-41.4-75.8-41.6-226.7-0.4-315.5 4.6-9.8 8.3-18.6 8.3-19.6 0-1.1 2.2-4.7 4.8-8.2 2.6-3.5 4.8-8.2 4.9-10.4 0-2.2 2.2-6.8 4.9-10.2 2.7-3.5 7.7-10.8 11.1-16.2 3.5-5.5 8.3-12.3 10.8-15 16-17.7 28.6-34.4 27.8-36.9-6.6-20.6-140.1 3.3-175.8 31.4-4.2 3.3-10.2 6.9-13.4 7.9-3.2 1-17 11.6-30.8 23.4-13.7 11.9-28.1 23.8-32 26.5-3.9 2.8-7.1 6-7.2 7.2 0 1.2-5.3 8.1-11.8 15.4-12.4 14-30.9 49.7-33.1 63.8-2.4 15.1 21.6 63.4 36.5 73.5 3.1 2.1 6.7 7.1 8.1 11.2 2.8 8.5 14.6 14.7 27.8 14.7 8.5 0 8.5 0 8.5 27.7 0 27.8 0 27.8 15.2 44.4 24.4 26.8 27.6 40.5 19.8 83-5.9 31.7-4.9 32.6 50.1 44.5 13.4 2.9 26.8 6.9 29.8 8.8 2.9 1.9 6.8 3.5 8.6 3.5 5.3 0 47.4 22 64.5 33.8 27.2 18.8 43.6 40.8 51.4 69.3 6.4 23.3 32.8 45.3 89.4 74.6 50.2 25.9 99.3 33.5 146.1 22.7zm-330.5-59.5c34-7.1 38-12.1 23.4-28.9-24.6-28.5-53.8-43.1-127.8-63.8-51.9-14.4-55.9-19.8-58.4-76.8-1.7-39.7-3.2-44.7-18.8-63.7-7.3-8.9-15-21.2-17.1-27.4-9.7-28-16.9-43.9-25.5-55.7-5.1-7-9.2-14.1-9.2-15.9 0-1.7-1.1-3.2-2.5-3.2-13.7 0-37.3-60.4-35.4-90.7 2.9-45.7 59.6-143.5 95.4-164.6 2.1-1.3 9.8-7.6 17.1-14.1 57.5-51.3 140.2-87.1 210-91.2 15.5-0.9 28.3-2.4 28.3-3.3 0-16.5-57.4-67.5-99.9-88.8-78.4-39.2-204.5-42.6-239.2-6.4-21.6 22.5-33.3 97.5-17.6 112.7 9.1 8.7 4.2 25.8-10.4 36.4-18.6 13.5-18.1 12.6-19.1 38.9-1.2 33.2-22.3 71.7-39.4 71.7-5.4 0-22.1 18-22.1 23.8 0 5.6 8.7 22.5 20.8 40.6 44.7 66.6 59.7 159.8 32.2 199.8-22.6 32.9 15.4 154.7 66 211.6 46.7 52.5 156.5 78.5 249.2 59zm344.2-133.4c16.6-10 33-20.2 36.4-22.7 8.1-5.7 39.9-18.3 58.7-23.4 49.1-13.1 74.5-10.2 112.8 13 30 18.1 150.7-29.3 202.6-79.6 47.1-45.7 70.6-169.6 49.4-260.5-14.4-61.9-60.4 2.8-89.1 125.3-10.9 46.5-15.2 49.8-66.4 51.4-40.7 1.2-50.4 4.2-70.5 21.6-13.6 11.7-22.6 16.6-44.5 24.3-9.2 3.2-18.2 7.2-20 8.8-1.9 1.5-6.5 4.6-10.4 6.9-3.8 2.2-16 11.2-27 20-121.3 96.8-330.7-89.1-343.4-305-0.9-15.8-2.7-27.6-4.2-28.1-8.4-2.9-78 78.8-78 91.5 0 1.6-2.2 5.8-4.8 9.2-34.9 46-41.1 217.4-9.1 250.6 21.9 22.7 94 36.1 110.6 20.5 12.7-11.9 30.1-3.4 44.6 21.7 3.6 6.1 5.3 6.7 26.9 8.2 39.7 2.9 47.1 7.1 68.9 39.7 12.6 18.6 21.2 27.3 25.2 25.3 0.7-0.3 14.8-8.7 31.3-18.7zm63.7-143.2c27.7-16.8 54.3-43.2 54.3-53.8 0-17.8 5.7-20.9 34.1-18.9 23.9 1.7 23.9 1.7 37.9-13.3 24.9-26.8 42.4-31.7 79.1-22.6 11 2.7 21.7 5 23.6 5 5.3 0 11.8-17.2 22.4-59 11-43.2 17.4-61.8 25.6-74.3 3.2-5 5.9-10 5.9-11.2 0-15.7 46.1-59.5 72.3-68.7 23.4-8.3 26.7-10.8 41.6-31.9 98.3-139.1 80.7-263.1-53.7-378.1-40.3-34.5-56.8-35.4-56.3-3.1 0.7 39.2 12.8 71.5 49.3 131.4 27.5 45 26.5 51.6-14.9 97.3-17.4 19.2-22.9 30.7-28.5 59.4-2.5 12.8-7.4 30.5-11 39.2-11 27.3-15 42.4-19.2 73.3-15.5 112.1-110.3 155.4-278 126.9-35.7-6-110-34.5-128.7-49.4-4.5-3.5-8.9-6.4-9.8-6.4-0.9 0-11.3-8.7-23.2-19.3-36.6-32.8-35.3-32.9-37.3 0.9-8.6 149 130 327.9 214.5 276.6zm-782.9-25.5c16.7-15.7-0.5-80-39-145.6-32.4-55.2-32.2-60.2 5.4-101.5 22.9-25.2 29.6-38.9 33.1-67.9 1.9-16.3 4.7-25.8 12.1-41.1 8-16.7 10.6-26.2 15.7-57.4 12.6-77.3 24-95.7 73.8-119.4 113.2-53.9 285.2-22 383 70.9 20.3 19.3 21.8 18.3 23-14.1 3.2-91.8-53.5-214.5-120.9-261.7-54.3-38-70.5-36.5-128 11.3-19.3 16-21.4 18.6-20.7 25.2 1.1 11.6-7.9 24.9-16 23.6-34.4-5.5-40.6-4.4-51.5 8.9-19.6 23.9-43.9 32.3-75.3 26.1-40.3-8.1-38-10.4-54.5 54.7-21.5 85.5-60 140.4-108.1 154.4-23.3 6.8-40.8 28.1-69.7 84.8-54.2 106.2-37.4 196.5 54.1 291.8 41.2 42.8 74.4 65.5 83.5 57zm927.4-216.1c35.7-11.8 48.6-32.9 55.7-91.4 4-32.3 4-32.3-3.6-39.6-12.1-11.6-1.4-34.2 22.2-46.9 6.8-3.6 6.9-4.1 5.5-18.3-4-40 7.3-62.1 42.9-83.6 22.4-13.6 21.9-21.5-4.4-66.3-44.2-75.4-56.6-144.3-34.3-189.9 29.3-59.9-23.1-196-94.4-245.2-57.3-39.4-239.7-53.4-250.1-19.1-1.4 4.5 22.2 32.1 31.3 36.6 4.6 2.2 9.6 5.7 11.2 7.7 5.2 6.4 37.5 18.7 80.2 30.5 22.8 6.3 45.5 12.5 50.4 13.9 14.6 4 19.3 18.8 21.5 67.7 1 21.8 2.8 40.4 4 41.2 1.2 0.8 3.6 4.3 5.4 7.7 1.7 3.4 7.2 11.3 12.1 17.4 9 11.3 19.1 29.8 19.1 35 0 8.6 19.2 43.2 39.4 71 12.8 17.6 23.2 34.3 23.2 37.2 0 2.9 1.9 8.1 4.2 11.5 8.3 12.3 3.8 52-9.4 82.2-13.4 30.5-17.7 38.6-31.4 58.6-23.3 33.8-88.1 94.7-111.8 105-4.3 1.9-8.3 4.4-9.1 5.7-11.1 18.7-105.7 50.8-159.4 54.3-29.9 1.8-30.3 2.3-18.6 19.9 48.8 73.5 210.4 126.2 298.2 97.2zm-196.1-188.3c27.2-8.8 67.9-27.6 75.7-35.1 2.7-2.6 8.7-6.3 13.3-8.3 21.6-9.3 81-72.8 94.4-101 14.1-29.8 11.9-48.5-9.5-79.6-31.4-45.5-30.7-44.8-44-46.6-17.5-2.4-20.4-7.9-18.2-35.4 1.7-21.3 1.7-21.3-14.8-39.2-17.4-19-21.6-28.3-24-52.8-0.8-7.1-0.2-15 1.1-17.6 15.1-29.4 6.4-43.3-33.6-53.5-98.6-25.2-167.5-75.2-168-122.1-0.5-34-125.1-97.7-191.3-97.7-76.6-0.1-168.7 63.6-223.5 154.4-25.2 41.7 54.3 31.3 131.5-17.3 60.3-38 63.2-38 104.9 1.2 25.4 23.8 27.2 25.4 31.1 27.8 1.7 1 15.3 3.9 30.1 6.4 20.1 3.4 31.3 6.8 43.8 13.4 9.7 5 25 10.4 36.1 12.5 10.6 2.1 31.7 6.2 46.9 9.1 47.4 9 65 22.4 85.4 65.4 53.8 112.9 25.7 293.4-61.7 396.4-25 29.3-25.1 29.2 29.3 28.3 37.2-0.5 41.3-1.1 65-8.7zm-147.5-51.1c5-4.6 11.5-9.7 14.5-11.3 3-1.6 5.4-4.1 5.4-5.5 0-1.4 5-8.5 11.2-15.8 82-96.3 98.5-307.7 25.6-327.8-41-11.3-80.9-13.2-88.3-4.2-9.2 11.1-22.6 5.8-38.8-15.1-9.6-12.5-9.6-12.5-33.7-13.7-33.3-1.8-50.8-11.4-65.1-35.7-20.5-35.1-25-35.1-77.5 0.3-11 7.3-20.6 13.4-21.5 13.4-0.8 0-7 2.8-13.7 6.2-42.1 21.3-110.2 26.9-138.7 11.4-50.8-27.7-186 19.9-225.3 79.4-3.3 4.9-10.2 15.1-15.4 22.6-29.1 42.1-42.7 153-27.6 224.4 7.2 34.1 12.6 35.8 35.1 10.8 26.2-29.1 33.8-45.6 48.1-104.7 18.2-75.1 18.3-75.2 74.9-78.4 40.9-2.4 46.4-4.2 70.7-23.5 11.3-8.9 23-15.6 34.7-19.7 9.7-3.4 23.8-10.1 31.5-15 7.6-4.8 14.8-8.8 16-8.8 1.2 0 4.9-2.9 8-6.4 10.9-12 44.1-33.2 58.8-37.5 32.4-9.5 95.4 8.9 128.2 37.5 4 3.5 8.4 6.4 9.7 6.4 8 0 92 94.7 92 103.7 0 1.6 1.4 3.5 3.1 4.2 5.6 2.2 31.9 56.2 43.5 89 9.9 28.2 12.9 43.6 16.1 83.5 3.4 43.5 3.7 44 18.5 30.3z"/>
</svg>