<svg version="1.2" xmlns="http://www.w3.org/2000/svg" viewBox="0 0 852 984" width="852" height="984">
	<title>bg-logo-large-svg</title>
	<style>
		.s0 { fill: #49626e } 
	</style>
	<path id="Layer" fill-rule="evenodd" class="s0" d="m450.8 909.1c-25.9-7.4-52-22.9-75.2-44.6-9.9-9.4-10.8-9.6-23.4-5-117.5 42.4-223.5-24.5-231-145.9-1-14.8-1-14.8-11.8-20.4-113.2-58.6-143.5-179.2-67.5-268.6 11.8-13.9 11.5-12.6 6.8-32-22.9-94.4-2.4-170.3 56.6-209.6 22.7-15.1 44.4-21.1 86.5-23.9 11.7-0.8 11.7-0.8 15.8-9.3 22.3-45.8 67.5-92.9 101.1-105.5 3.4-1.2 8.5-3.4 11.5-4.8 43.1-20.4 103.5-5.6 149.2 36.7 13.1 12.1 13.1 12.1 30.1 7.1 123.1-36.4 213.9 19.3 226.5 138.8 2.4 23.4 1.4 21.7 20.1 32.1 107.9 60.2 135.7 181.1 60.7 264.2-13.6 15.1-12.8 12.5-8.3 28.8 37.2 134.1-19.4 228.5-142.8 238.2-11.4 0.9-11.4 0.9-18.8 15.1-20.2 38.6-53.3 75.2-81.7 90.2-3.6 1.9-7.4 4.3-8.5 5.4-1 1-2.5 1.9-3.3 1.9-0.8 0-3.9 1.2-6.9 2.7-20.8 10.3-64.2 14.6-85.7 8.4zm66.6-35.4c34-7.9 78.1-44.6 99.8-83 6.6-11.8 6.8-10.9-2.6-12.8-17.8-3.6-44.6 5.2-73.5 24.3-29.1 19.1-31.2 19-55.4-3.7-16.4-15.3-20.5-17.5-36.1-18.7-9.2-0.7-13.3-1.7-17.7-4.3-9.1-5.5-19.4-8.6-43-13.1-31.7-6-40.8-11.4-51.1-30.3-22.9-42-23-125.7-0.2-174.9 2.5-5.4 4.6-10.3 4.6-10.9 0-0.6 1.2-2.6 2.7-4.5 1.4-2 2.7-4.5 2.7-5.8 0-1.2 1.2-3.8 2.7-5.7 1.5-1.9 4.3-5.9 6.2-8.9 1.9-3.1 4.6-6.8 5.9-8.3 8.9-9.8 15.9-19.1 15.5-20.5-3.7-11.4-77.7 1.8-97.5 17.4-2.4 1.9-5.7 3.8-7.5 4.4-1.7 0.6-9.4 6.4-17 13-7.6 6.5-15.6 13.2-17.8 14.7-2.1 1.5-3.9 3.3-4 3.9 0 0.7-2.9 4.5-6.5 8.6-6.9 7.8-17.2 27.6-18.4 35.3-1.3 8.4 12 35.2 20.3 40.8 1.7 1.2 3.7 4 4.4 6.2 1.6 4.7 8.1 8.2 15.5 8.2 4.7 0 4.7 0 4.7 15.3 0 15.4 0 15.4 8.4 24.6 13.5 14.9 15.3 22.5 11 46.1-3.3 17.5-2.7 18 27.8 24.7 7.4 1.6 14.9 3.8 16.5 4.8 1.6 1.1 3.8 2 4.8 2 2.9 0 26.3 12.2 35.7 18.7 15.1 10.4 24.2 22.6 28.5 38.4 3.6 12.9 18.2 25.2 49.6 41.4 27.9 14.3 55.1 18.6 81 12.6zm-183.2-33c18.8-3.9 21-6.7 13-16.1-13.7-15.8-29.9-23.8-70.9-35.3-28.8-8-31-11-32.4-42.6-1-22-1.8-24.8-10.4-35.3-4.1-4.9-8.4-11.8-9.5-15.2-5.4-15.5-9.4-24.3-14.1-30.9-2.9-3.9-5.2-7.8-5.2-8.8 0-1-0.6-1.8-1.3-1.8-7.7 0-20.7-33.4-19.7-50.3 1.6-25.3 33.1-79.5 52.9-91.2 1.2-0.7 5.5-4.3 9.5-7.8 31.9-28.5 77.8-48.4 116.5-50.6 8.6-0.5 15.6-1.3 15.6-1.8 0-9.2-31.8-37.5-55.4-49.3-43.4-21.7-113.4-23.6-132.6-3.5-11.9 12.4-18.5 54.1-9.8 62.4 5.1 4.9 2.4 14.4-5.7 20.2-10.3 7.5-10.1 7-10.6 21.6-0.7 18.4-12.4 39.8-21.9 39.8-2.9 0-12.2 9.9-12.2 13.1 0 3.1 4.8 12.5 11.5 22.6 24.8 36.9 33.1 88.6 17.9 110.8-12.6 18.2 8.5 85.7 36.6 117.3 25.9 29.1 86.8 43.5 138.2 32.7zm190.8-74c9.2-5.5 18.3-11.2 20.2-12.6 4.5-3.1 22.1-10.1 32.6-12.9 27.2-7.3 41.3-5.7 62.5 7.2 16.7 10 83.6-16.3 112.4-44.2 26.1-25.3 39.1-94 27.4-144.4-8-34.3-33.5 1.6-49.5 69.5-6 25.7-8.4 27.6-36.8 28.5-22.5 0.7-27.9 2.3-39.1 11.9-7.5 6.5-12.5 9.2-24.6 13.5-5.1 1.8-10.1 4-11.1 4.9-1.1 0.8-3.6 2.6-5.8 3.8-2.1 1.2-8.9 6.2-15 11.1-67.2 53.7-183.4-49.4-190.4-169.1-0.5-8.8-1.5-15.3-2.3-15.6-4.7-1.6-43.3 43.7-43.3 50.8 0 0.8-1.2 3.1-2.6 5.1-19.4 25.5-22.8 120.5-5.1 138.9 12.2 12.6 52.1 20 61.4 11.4 7-6.6 16.7-1.9 24.7 12 2 3.4 2.9 3.7 14.9 4.6 22 1.6 26.1 3.9 38.2 21.9 7 10.4 11.7 15.2 14 14.1 0.4-0.2 8.2-4.9 17.3-10.4zm35.3-79.4c15.4-9.3 30.1-23.9 30.1-29.8 0-9.9 3.2-11.6 19-10.5 13.2 1 13.2 1 21-7.4 13.8-14.8 23.5-17.6 43.9-12.5 6.1 1.5 12 2.8 13.1 2.8 2.9 0 6.5-9.6 12.4-32.8 6.1-23.9 9.6-34.2 14.2-41.2 1.8-2.7 3.2-5.5 3.2-6.2 0-8.6 25.6-32.9 40.1-38 13-4.6 14.8-6 23.1-17.7 54.5-77.1 44.7-145.9-29.8-209.6-22.3-19.2-31.5-19.7-31.2-1.8 0.4 21.7 7.1 39.7 27.3 72.9 15.3 25 14.7 28.6-8.2 53.9-9.7 10.7-12.7 17-15.8 33-1.4 7.1-4.1 16.9-6.1 21.7-6.1 15.2-8.3 23.5-10.7 40.7-8.5 62.1-61.1 86.1-154.2 70.3-19.7-3.3-60.9-19.1-71.3-27.4-2.5-1.9-5-3.5-5.4-3.5-0.5 0-6.3-4.9-12.9-10.8-20.3-18.1-19.6-18.2-20.7 0.6-4.8 82.6 72.1 181.8 118.9 153.3zm-434.1-14.1c9.3-8.7-0.3-44.4-21.6-80.8-18-30.6-17.8-33.3 3-56.2 12.7-14 16.4-21.6 18.3-37.7 1.1-9 2.7-14.3 6.7-22.8 4.5-9.2 5.9-14.5 8.7-31.8 7-42.8 13.3-53.1 41-66.2 62.7-29.9 158.1-12.2 212.4 39.3 11.2 10.7 12.1 10.2 12.7-7.8 1.8-50.9-29.6-118.9-67-145.1-30.1-21-39.1-20.2-71 6.3-10.7 8.9-11.9 10.3-11.5 14 0.7 6.4-4.4 13.8-8.9 13-19-3-22.5-2.4-28.5 5-10.9 13.2-24.4 17.9-41.8 14.4-22.3-4.4-21.1-5.7-30.2 30.4-11.9 47.4-33.3 77.8-59.9 85.6-13 3.7-22.7 15.6-38.7 47-30 58.9-20.7 109 30 161.8 22.9 23.7 41.3 36.3 46.3 31.6zm514.3-119.8c19.8-6.6 27-18.3 30.9-50.7 2.2-17.9 2.2-17.9-2-21.9-6.7-6.5-0.8-19.1 12.3-26 3.8-2.1 3.8-2.3 3.1-10.2-2.3-22.2 4-34.5 23.7-46.4 12.5-7.5 12.2-11.9-2.4-36.7-24.5-41.8-31.4-80-19-105.3 16.2-33.2-12.8-108.7-52.4-136-31.7-21.8-132.9-29.6-138.7-10.6-0.7 2.6 12.3 17.8 17.4 20.3 2.5 1.3 5.3 3.2 6.2 4.3 2.9 3.6 20.8 10.4 44.5 16.9 12.6 3.5 25.2 7 27.9 7.7 8.1 2.3 10.7 10.4 12 37.6 0.5 12.1 1.5 22.3 2.2 22.8 0.7 0.4 2 2.4 3 4.3 0.9 1.9 3.9 6.2 6.7 9.7 5 6.2 10.6 16.5 10.6 19.3 0 4.8 10.6 24 21.8 39.4 7.1 9.7 12.9 19 12.9 20.6 0 1.7 1 4.5 2.3 6.4 4.6 6.8 2.1 28.9-5.2 45.6-7.4 16.9-9.8 21.4-17.4 32.4-12.9 18.8-48.9 52.6-62 58.3-2.4 1-4.6 2.4-5.1 3.1-6.1 10.4-58.6 28.2-88.4 30.1-16.5 1.1-16.8 1.3-10.3 11.1 27.1 40.8 116.7 69.9 165.4 53.9zm-108.8-104.4c15.1-4.9 37.7-15.3 42.1-19.5 1.4-1.4 4.7-3.5 7.3-4.6 12-5.2 44.9-40.4 52.3-56 7.9-16.5 6.6-26.9-5.2-44.1-17.4-25.3-17.1-24.9-24.4-25.9-9.7-1.3-11.3-4.4-10.1-19.6 0.9-11.8 0.9-11.8-8.2-21.7-9.6-10.5-12-15.7-13.4-29.3-0.3-3.9-0.1-8.3 0.7-9.8 8.4-16.3 3.6-23.9-18.6-29.6-54.8-14-92.9-41.7-93.2-67.7-0.3-18.9-69.4-54.2-106.1-54.2-42.5 0-93.6 35.3-124 85.6-13.9 23.2 30.2 17.4 73-9.6 33.4-21 35-21 58.2 0.7 14 13.2 15 14.1 17.2 15.4 1 0.6 8.5 2.2 16.7 3.6 11.2 1.9 17.3 3.7 24.3 7.4 5.3 2.8 13.9 5.7 20 6.9 5.9 1.2 17.6 3.4 26 5 26.3 5 36 12.5 47.4 36.3 29.8 62.6 14.2 162.7-34.3 219.8-13.8 16.3-13.9 16.2 16.3 15.7 20.6-0.3 22.9-0.6 36-4.8zm-81.7-28.4c2.7-2.5 6.3-5.3 8-6.2 1.6-0.9 3-2.3 3-3.1 0-0.8 2.8-4.7 6.2-8.7 45.5-53.4 54.6-170.6 14.2-181.8-22.7-6.2-44.9-7.3-49-2.3-5.1 6.1-12.5 3.2-21.5-8.4-5.3-6.9-5.3-6.9-18.6-7.6-18.5-1-28.3-6.3-36.2-19.8-11.3-19.4-13.8-19.4-43 0.2-6.1 4.1-11.4 7.4-11.9 7.4-0.4 0-3.8 1.6-7.6 3.4-23.3 11.9-61.1 15-76.9 6.4-28.2-15.4-103.1 11-124.9 44-1.8 2.7-5.7 8.4-8.6 12.5-16.1 23.4-23.7 84.9-15.3 124.5 4 18.9 7 19.8 19.5 5.9 14.5-16.1 18.7-25.2 26.7-58 10.1-41.7 10.1-41.7 41.5-43.5 22.7-1.3 25.8-2.3 39.2-13 6.3-5 12.8-8.6 19.2-10.9 5.4-1.9 13.3-5.6 17.5-8.3 4.2-2.7 8.2-4.9 8.9-4.9 0.7 0 2.7-1.6 4.5-3.6 6-6.6 24.4-18.4 32.5-20.7 18-5.3 53 4.9 71.1 20.7 2.3 2 4.7 3.6 5.4 3.6 4.4 0 51 52.5 51 57.5 0 0.9 0.8 1.9 1.8 2.3 3 1.2 17.7 31.2 24.1 49.4 5.5 15.6 7.1 24.1 8.9 46.3 1.9 24.1 2.1 24.3 10.3 16.7z"/>
</svg>